<?xml version="1.0" standalone="no"?>
<svg xmlns="http://www.w3.org/2000/svg" xmlns:xlink="http://www.w3.org/1999/xlink" id="networkNavigatorSvg" style="width: 100vw; height: 100vh;"><rect class="background" width="100%" height="100%" fill="#fff"/><g id="network" transform="translate(-2442.523565953407,-1034.9268253325836) scale(5.080603930155161)"><g class="network"><g class="links"><path class="link" d="M865.7323076727232,195.16801374814108L867.1021489904374,190.80282350275175Q752.8157928028587,151.2592016354365,649.1677620704689,82.37842499419646L646.5289123914189,86.11578013995624Q750.200773713705,156.51550726202473,865.7323076727232,195.16801374814108Z" style="fill: rgb(125, 178, 226);"/><path class="link" d="M649.1677620704689,82.37842499419646L646.5289123914189,86.11578013995624Q747.5857546245512,161.77181288861294,865.7323076727232,195.16801374814108L867.1021489904374,190.80282350275175Q750.200773713705,156.51550726202473,649.1677620704689,82.37842499419646Z" style="fill: rgb(125, 178, 226);"/><path class="link" d="M867.4126882259577,195.04988865373204L865.4217684372029,190.9209485971608Q738.4960203704699,248.0658483904859,590.1892463591271,264.7144592518162L590.5884948394669,269.2809139211369Q740.063439399123,253.91152927929846,867.4126882259577,195.04988865373204Z" style="fill: rgb(125, 178, 226);"/><path class="link" d="M590.1892463591271,264.7144592518162L590.5884948394669,269.2809139211369Q741.6308584277763,259.757210168111,867.4126882259577,195.04988865373204L865.4217684372029,190.9209485971608Q740.063439399123,253.91152927929846,590.1892463591271,264.7144592518162Z" style="fill: rgb(125, 178, 226);"/><path class="link" d="M729.544410359484,335.9082986313583L734.0739573913471,333.4772982364958Q674.7509402909735,214.78020930405168,650.3878710175383,83.85035585295503L645.3088034443496,84.64384928119767Q668.5652594648828,216.8539323018993,729.544410359484,335.9082986313583Z" style="fill: rgb(119, 172, 220);"/><path class="link" d="M650.3878710175383,83.85035585295503L645.3088034443496,84.64384928119767Q662.3795786387922,218.92765529974696,729.544410359484,335.9082986313583L734.0739573913471,333.4772982364958Q668.5652594648828,216.8539323018993,650.3878710175383,83.85035585295503Z" style="fill: rgb(119, 172, 220);"/><path class="link" d="M356.9267655853149,260.05504561972293L351.24775113936323,266.08335850871765Q425.74891678743074,343.36130621395824,525.1724021146898,395.5196300742735L529.3534686732925,388.37047321507094Q431.3411606194029,335.84678262493384,356.9267655853149,260.05504561972293Z" style="fill: rgb(83, 139, 187);"/><path class="link" d="M525.1724021146898,395.5196300742735L529.3534686732925,388.37047321507094Q436.9334044513751,328.3322590359095,356.9267655853149,260.05504561972293L351.24775113936323,266.08335850871765Q431.3411606194029,335.84678262493384,525.1724021146898,395.5196300742735Z" style="fill: rgb(83, 139, 187);"/><path class="link" d="M354.7231784346011,258.97073024769406L353.45133829007705,267.1676738807465Q467.8783782302994,290.2435547655672,590.8521149252183,271.1192482157219L589.9256262733757,262.87612495723124Q468.03621477830904,280.74955509386336,354.7231784346011,258.97073024769406Z" style="fill: rgb(83, 139, 187);"/><path class="link" d="M590.8521149252183,271.1192482157219L589.9256262733757,262.87612495723124Q468.1940513263187,271.25555542215955,354.7231784346011,258.97073024769406L353.45133829007705,267.1676738807465Q468.03621477830904,280.74955509386336,590.8521149252183,271.1192482157219Z" style="fill: rgb(83, 139, 187);"/><path class="link" d="M653.0691542575643,85.48962922744573L642.6275202043236,83.00457590670698Q615.3358429360129,170.97242536037896,585.3871424862197,265.0525596471665L595.3905987123743,268.9428135257866Q626.3816268786354,174.44538199839505,653.0691542575643,85.48962922744573Z" style="fill: rgb(55, 114, 162);"/><path class="link" d="M585.3871424862197,265.0525596471665L595.3905987123743,268.9428135257866Q637.4274108212578,177.91833863641116,653.0691542575643,85.48962922744573L642.6275202043236,83.00457590670698Q626.3816268786354,174.44538199839505,585.3871424862197,265.0525596471665Z" style="fill: rgb(55, 114, 162);"/><path class="link" d="M520.5687677241683,388.56302278490494L533.957103063814,395.3270805044395Q571.5689744205695,337.5126202069643,597.0830382691198,270.3797154462438L583.6947029294741,263.61565772670934Q558.1806390809238,330.7485624874298,520.5687677241683,388.56302278490494Z" style="fill: rgb(6, 69, 117);"/><path class="link" d="M597.0830382691198,270.3797154462438L583.6947029294741,263.61565772670934Q544.7923037412781,323.9845047678953,520.5687677241683,388.56302278490494L533.957103063814,395.3270805044395Q558.1806390809238,330.7485624874298,597.0830382691198,270.3797154462438Z" style="fill: rgb(6, 69, 117);"/></g><g class="nodes"><g id="id-1"><circle r="57.64769720245252" cx="590.388870599297" cy="266.99768658647656" style="fill: rgb(235, 247, 233); stroke: rgb(56, 160, 85); stroke-width: 5;"/><circle r="0" fill="" cx="590.388870599297" cy="266.99768658647656"/><circle r="0" cx="590.388870599297" cy="266.99768658647656" style="fill: rgb(244, 128, 116);"/></g><g id="id-2"><circle r="54.78581779895411" cx="527.2629353939911" cy="391.9450516446722" style="fill: rgb(236, 247, 234); stroke: rgb(74, 170, 98); stroke-width: 4.53666;"/><circle r="0" fill="" cx="527.2629353939911" cy="391.9450516446722"/><circle r="0" cx="527.2629353939911" cy="391.9450516446722" style="fill: rgb(244, 128, 116);"/></g><g id="id-3"><circle r="51.04513349161552" cx="647.8483372309439" cy="84.24710256707635" style="fill: rgb(238, 248, 236); stroke: rgb(107, 187, 121); stroke-width: 3.69215;"/><circle r="0" fill="" cx="647.8483372309439" cy="84.24710256707635"/><circle r="0" cx="647.8483372309439" cy="84.24710256707635" style="fill: rgb(244, 128, 116);"/></g><g id="id-4"><circle r="50.56066505747087" cx="731.8091838754156" cy="334.69279843392707" style="fill: rgb(238, 248, 237); stroke: rgb(151, 211, 152); stroke-width: 2.55179;"/><circle r="0" fill="" cx="731.8091838754156" cy="334.69279843392707"/><circle r="0" cx="731.8091838754156" cy="334.69279843392707" style="fill: rgb(244, 128, 116);"/></g><g id="id-5"><circle r="49.767643413824146" cx="354.08725836233907" cy="263.0692020642203" style="fill: rgb(239, 248, 237); stroke: rgb(112, 190, 124); stroke-width: 3.56246;"/><circle r="0" fill="" cx="354.08725836233907" cy="263.0692020642203"/><circle r="0" cx="354.08725836233907" cy="263.0692020642203" style="fill: rgb(244, 128, 116);"/></g><g id="id-6"><circle r="47.512396572934094" cx="866.4172283315803" cy="192.9854186254464" style="fill: rgb(240, 249, 238); stroke: rgb(148, 209, 149); stroke-width: 2.64091;"/><circle r="0" fill="" cx="866.4172283315803" cy="192.9854186254464"/><circle r="0" cx="866.4172283315803" cy="192.9854186254464" style="fill: rgb(244, 128, 116);"/></g><g id="id-7"><circle r="46.57600634599699" cx="503.7423699358016" cy="716.4300581877466" style="fill: rgb(241, 249, 239); stroke: rgb(173, 222, 167); stroke-width: 2;"/><circle r="0" fill="" cx="503.7423699358016" cy="716.4300581877466"/><circle r="0" cx="503.7423699358016" cy="716.4300581877466" style="fill: rgb(244, 128, 116);"/></g><g id="id-8"><circle r="45.80603930155161" cx="386.1367918656766" cy="-10.140866270958885" style="fill: rgb(241, 249, 239); stroke: rgb(173, 222, 167); stroke-width: 2;"/><circle r="0" fill="" cx="386.1367918656766" cy="-10.140866270958885"/><circle r="0" cx="386.1367918656766" cy="-10.140866270958885" style="fill: rgb(244, 128, 116);"/></g><g id="id-9"><circle r="45.80603930155161" cx="944.9220601957558" cy="452.9182761328474" style="fill: rgb(241, 249, 239); stroke: rgb(173, 222, 167); stroke-width: 2;"/><circle r="0" fill="" cx="944.9220601957558" cy="452.9182761328474"/><circle r="0" cx="944.9220601957558" cy="452.9182761328474" style="fill: rgb(244, 128, 116);"/></g><g id="id-10"><circle r="45.80603930155161" cx="158.74367825884488" cy="572.6037407896911" style="fill: rgb(241, 249, 239); stroke: rgb(173, 222, 167); stroke-width: 2;"/><circle r="0" fill="" cx="158.74367825884488" cy="572.6037407896911"/><circle r="0" cx="158.74367825884488" cy="572.6037407896911" style="fill: rgb(244, 128, 116);"/></g><g id="id-11"><circle r="45.80603930155161" cx="780.1818425927054" cy="-139.0758177597356" style="fill: rgb(241, 249, 239); stroke: rgb(173, 222, 167); stroke-width: 2;"/><circle r="0" fill="" cx="780.1818425927054" cy="-139.0758177597356"/><circle r="0" cx="780.1818425927054" cy="-139.0758177597356" style="fill: rgb(244, 128, 116);"/></g><g id="id-12"><circle r="45.80603930155161" cx="893.3179936766428" cy="807.1472123463159" style="fill: rgb(241, 249, 239); stroke: rgb(173, 222, 167); stroke-width: 2;"/><circle r="0" fill="" cx="893.3179936766428" cy="807.1472123463159"/><circle r="0" cx="893.3179936766428" cy="807.1472123463159" style="fill: rgb(244, 128, 116);"/></g><g id="id-13"><circle r="45.80603930155161" cx="103.65625093397104" cy="-47.47974525378285" style="fill: rgb(241, 249, 239); stroke: rgb(173, 222, 167); stroke-width: 2;"/><circle r="0" fill="" cx="103.65625093397104" cy="-47.47974525378285"/><circle r="0" cx="103.65625093397104" cy="-47.47974525378285" style="fill: rgb(244, 128, 116);"/></g><g id="id-14"><circle r="45.80603930155161" cx="1234.6254584464007" cy="283.0091122545272" style="fill: rgb(241, 249, 239); stroke: rgb(173, 222, 167); stroke-width: 2;"/><circle r="0" fill="" cx="1234.6254584464007" cy="283.0091122545272"/><circle r="0" cx="1234.6254584464007" cy="283.0091122545272" style="fill: rgb(244, 128, 116);"/></g><g id="id-15"><circle r="45.80603930155161" cx="257.07007771234913" cy="854.3029033861778" style="fill: rgb(241, 249, 239); stroke: rgb(173, 222, 167); stroke-width: 2;"/><circle r="0" fill="" cx="257.07007771234913" cy="854.3029033861778"/><circle r="0" cx="257.07007771234913" cy="854.3029033861778" style="fill: rgb(244, 128, 116);"/></g><g id="id-16"><circle r="45.80603930155161" cx="517.7181481395423" cy="-302.1525654274616" style="fill: rgb(241, 249, 239); stroke: rgb(173, 222, 167); stroke-width: 2;"/><circle r="0" fill="" cx="517.7181481395423" cy="-302.1525654274616"/><circle r="0" cx="517.7181481395423" cy="-302.1525654274616" style="fill: rgb(244, 128, 116);"/></g><g id="id-17"><circle r="45.80603930155161" cx="1179.109615655052" cy="679.852670786094" style="fill: rgb(241, 249, 239); stroke: rgb(173, 222, 167); stroke-width: 2;"/><circle r="0" fill="" cx="1179.109615655052" cy="679.852670786094"/><circle r="0" cx="1179.109615655052" cy="679.852670786094" style="fill: rgb(244, 128, 116);"/></g><g id="id-18"><circle r="45.80603930155161" cx="-37.529173576563224" cy="331.1278207832386" style="fill: rgb(241, 249, 239); stroke: rgb(173, 222, 167); stroke-width: 2;"/><circle r="0" fill="" cx="-37.529173576563224" cy="331.1278207832386"/><circle r="0" cx="-37.529173576563224" cy="331.1278207832386" style="fill: rgb(244, 128, 116);"/></g><g id="id-19"><circle r="45.80603930155161" cx="1097.2258616884476" cy="-87.75986372942678" style="fill: rgb(241, 249, 239); stroke: rgb(173, 222, 167); stroke-width: 2;"/><circle r="0" fill="" cx="1097.2258616884476" cy="-87.75986372942678"/><circle r="0" cx="1097.2258616884476" cy="-87.75986372942678" style="fill: rgb(244, 128, 116);"/></g><g id="id-20"><circle r="45.80603930155161" cx="623.2568709780136" cy="1015.2588894951563" style="fill: rgb(241, 249, 239); stroke: rgb(173, 222, 167); stroke-width: 2;"/><circle r="0" fill="" cx="623.2568709780136" cy="1015.2588894951563"/><circle r="0" cx="623.2568709780136" cy="1015.2588894951563" style="fill: rgb(244, 128, 116);"/></g></g><g transform="matrix(0.15,0,0,0.15,501.8305400094024,226.94803359850508)"><g class="links"><path class="link" d="" style="fill: rgb(134, 186, 234);"/><path class="link" d="" style="fill: rgb(134, 186, 234);"/><path class="link" d="" style="fill: rgb(134, 186, 234);"/><path class="link" d="" style="fill: rgb(134, 186, 234);"/><path class="link" d="" style="fill: rgb(134, 186, 234);"/><path class="link" d="" style="fill: rgb(134, 186, 234);"/><path class="link" d="" style="fill: rgb(134, 186, 234);"/><path class="link" d="" style="fill: rgb(134, 186, 234);"/><path class="link" d="" style="fill: rgb(134, 186, 234);"/><path class="link" d="" style="fill: rgb(134, 186, 234);"/><path class="link" d="" style="fill: rgb(134, 186, 234);"/><path class="link" d="" style="fill: rgb(134, 186, 234);"/><path class="link" d="" style="fill: rgb(134, 186, 234);"/><path class="link" d="" style="fill: rgb(134, 186, 234);"/><path class="link" d="" style="fill: rgb(134, 186, 234);"/><path class="link" d="" style="fill: rgb(134, 186, 234);"/><path class="link" d="" style="fill: rgb(134, 186, 234);"/><path class="link" d="" style="fill: rgb(134, 186, 234);"/><path class="link" d="" style="fill: rgb(134, 186, 234);"/><path class="link" d="" style="fill: rgb(134, 186, 234);"/><path class="link" d="" style="fill: rgb(134, 186, 234);"/><path class="link" d="" style="fill: rgb(134, 186, 234);"/><path class="link" d="" style="fill: rgb(134, 186, 234);"/><path class="link" d="" style="fill: rgb(134, 186, 234);"/><path class="link" d="" style="fill: rgb(134, 186, 234);"/><path class="link" d="" style="fill: rgb(134, 186, 234);"/><path class="link" d="" style="fill: rgb(134, 186, 234);"/><path class="link" d="" style="fill: rgb(134, 186, 234);"/><path class="link" d="" style="fill: rgb(134, 186, 234);"/><path class="link" d="" style="fill: rgb(134, 186, 234);"/><path class="link" d="" style="fill: rgb(134, 186, 234);"/><path class="link" d="" style="fill: rgb(134, 186, 234);"/><path class="link" d="" style="fill: rgb(134, 186, 234);"/><path class="link" d="" style="fill: rgb(134, 186, 234);"/><path class="link" d="" style="fill: rgb(134, 186, 234);"/><path class="link" d="" style="fill: rgb(134, 186, 234);"/><path class="link" d="" style="fill: rgb(134, 186, 234);"/><path class="link" d="" style="fill: rgb(134, 186, 234);"/><path class="link" d="" style="fill: rgb(134, 186, 234);"/><path class="link" d="" style="fill: rgb(134, 186, 234);"/><path class="link" d="" style="fill: rgb(134, 186, 234);"/><path class="link" d="" style="fill: rgb(134, 186, 234);"/><path class="link" d="" style="fill: rgb(134, 186, 234);"/><path class="link" d="" style="fill: rgb(134, 186, 234);"/><path class="link" d="" style="fill: rgb(134, 186, 234);"/><path class="link" d="" style="fill: rgb(134, 186, 234);"/><path class="link" d="" style="fill: rgb(134, 186, 234);"/><path class="link" d="" style="fill: rgb(134, 186, 234);"/><path class="link" d="" style="fill: rgb(134, 186, 234);"/><path class="link" d="" style="fill: rgb(134, 186, 234);"/><path class="link" d="" style="fill: rgb(134, 186, 234);"/><path class="link" d="" style="fill: rgb(134, 186, 234);"/><path class="link" d="" style="fill: rgb(134, 186, 234);"/><path class="link" d="" style="fill: rgb(134, 186, 234);"/><path class="link" d="" style="fill: rgb(134, 186, 234);"/><path class="link" d="" style="fill: rgb(134, 186, 234);"/><path class="link" d="" style="fill: rgb(134, 186, 234);"/><path class="link" d="" style="fill: rgb(134, 186, 234);"/><path class="link" d="" style="fill: rgb(134, 186, 234);"/><path class="link" d="" style="fill: rgb(134, 186, 234);"/><path class="link" d="" style="fill: rgb(134, 186, 234);"/><path class="link" d="" style="fill: rgb(134, 186, 234);"/><path class="link" d="" style="fill: rgb(134, 186, 234);"/><path class="link" d="" style="fill: rgb(134, 186, 234);"/><path class="link" d="" style="fill: rgb(134, 186, 234);"/><path class="link" d="" style="fill: rgb(134, 186, 234);"/><path class="link" d="" style="fill: rgb(134, 186, 234);"/><path class="link" d="" style="fill: rgb(134, 186, 234);"/><path class="link" d="" style="fill: rgb(134, 186, 234);"/><path class="link" d="" style="fill: rgb(134, 186, 234);"/><path class="link" d="" style="fill: rgb(134, 186, 234);"/><path class="link" d="" style="fill: rgb(134, 186, 234);"/><path class="link" d="" style="fill: rgb(134, 186, 234);"/><path class="link" d="" style="fill: rgb(134, 186, 234);"/><path class="link" d="" style="fill: rgb(134, 186, 234);"/><path class="link" d="" style="fill: rgb(134, 186, 234);"/><path class="link" d="" style="fill: rgb(134, 186, 234);"/><path class="link" d="" style="fill: rgb(134, 186, 234);"/><path class="link" d="" style="fill: rgb(134, 186, 234);"/><path class="link" d="" style="fill: rgb(134, 186, 234);"/><path class="link" d="" style="fill: rgb(134, 186, 234);"/><path class="link" d="" style="fill: rgb(134, 186, 234);"/><path class="link" d="" style="fill: rgb(134, 186, 234);"/><path class="link" d="" style="fill: rgb(134, 186, 234);"/><path class="link" d="" style="fill: rgb(134, 186, 234);"/><path class="link" d="" style="fill: rgb(134, 186, 234);"/><path class="link" d="" style="fill: rgb(134, 186, 234);"/><path class="link" d="" style="fill: rgb(134, 186, 234);"/><path class="link" d="" style="fill: rgb(134, 186, 234);"/><path class="link" d="" style="fill: rgb(134, 186, 234);"/><path class="link" d="" style="fill: rgb(134, 186, 234);"/><path class="link" d="" style="fill: rgb(134, 186, 234);"/><path class="link" d="" style="fill: rgb(134, 186, 234);"/><path class="link" d="" style="fill: rgb(134, 186, 234);"/><path class="link" d="" style="fill: rgb(134, 186, 234);"/><path class="link" d="" style="fill: rgb(134, 186, 234);"/><path class="link" d="" style="fill: rgb(134, 186, 234);"/><path class="link" d="" style="fill: rgb(134, 186, 234);"/><path class="link" d="" style="fill: rgb(134, 186, 234);"/><path class="link" d="" style="fill: rgb(134, 186, 234);"/><path class="link" d="" style="fill: rgb(134, 186, 234);"/><path class="link" d="" style="fill: rgb(134, 186, 234);"/><path class="link" d="" style="fill: rgb(134, 186, 234);"/><path class="link" d="" style="fill: rgb(134, 186, 234);"/><path class="link" d="" style="fill: rgb(134, 186, 234);"/><path class="link" d="" style="fill: rgb(134, 186, 234);"/><path class="link" d="" style="fill: rgb(134, 186, 234);"/><path class="link" d="" style="fill: rgb(134, 186, 234);"/><path class="link" d="" style="fill: rgb(134, 186, 234);"/><path class="link" d="" style="fill: rgb(134, 186, 234);"/><path class="link" d="" style="fill: rgb(134, 186, 234);"/><path class="link" d="" style="fill: rgb(134, 186, 234);"/><path class="link" d="" style="fill: rgb(134, 186, 234);"/><path class="link" d="" style="fill: rgb(134, 186, 234);"/><path class="link" d="" style="fill: rgb(134, 186, 234);"/><path class="link" d="" style="fill: rgb(134, 186, 234);"/><path class="link" d="" style="fill: rgb(134, 186, 234);"/><path class="link" d="" style="fill: rgb(134, 186, 234);"/><path class="link" d="" style="fill: rgb(134, 186, 234);"/><path class="link" d="" style="fill: rgb(134, 186, 234);"/><path class="link" d="" style="fill: rgb(134, 186, 234);"/><path class="link" d="" style="fill: rgb(134, 186, 234);"/><path class="link" d="" style="fill: rgb(134, 186, 234);"/><path class="link" d="" style="fill: rgb(134, 186, 234);"/><path class="link" d="" style="fill: rgb(134, 186, 234);"/><path class="link" d="" style="fill: rgb(134, 186, 234);"/><path class="link" d="" style="fill: rgb(134, 186, 234);"/><path class="link" d="" style="fill: rgb(134, 186, 234);"/><path class="link" d="" style="fill: rgb(134, 186, 234);"/><path class="link" d="" style="fill: rgb(134, 186, 234);"/><path class="link" d="" style="fill: rgb(134, 186, 234);"/><path class="link" d="" style="fill: rgb(134, 186, 234);"/><path class="link" d="" style="fill: rgb(134, 186, 234);"/><path class="link" d="" style="fill: rgb(134, 186, 234);"/><path class="link" d="" style="fill: rgb(134, 186, 234);"/><path class="link" d="" style="fill: rgb(134, 186, 234);"/><path class="link" d="" style="fill: rgb(134, 186, 234);"/><path class="link" d="" style="fill: rgb(134, 186, 234);"/><path class="link" d="" style="fill: rgb(134, 186, 234);"/><path class="link" d="" style="fill: rgb(134, 186, 234);"/><path class="link" d="" style="fill: rgb(134, 186, 234);"/><path class="link" d="" style="fill: rgb(134, 186, 234);"/><path class="link" d="" style="fill: rgb(134, 186, 234);"/><path class="link" d="" style="fill: rgb(134, 186, 234);"/><path class="link" d="" style="fill: rgb(134, 186, 234);"/><path class="link" d="" style="fill: rgb(134, 186, 234);"/><path class="link" d="" style="fill: rgb(134, 186, 234);"/><path class="link" d="" style="fill: rgb(134, 186, 234);"/><path class="link" d="" style="fill: rgb(134, 186, 234);"/><path class="link" d="" style="fill: rgb(134, 186, 234);"/><path class="link" d="" style="fill: rgb(134, 186, 234);"/><path class="link" d="" style="fill: rgb(134, 186, 234);"/><path class="link" d="" style="fill: rgb(134, 186, 234);"/><path class="link" d="" style="fill: rgb(134, 186, 234);"/><path class="link" d="" style="fill: rgb(134, 186, 234);"/><path class="link" d="" style="fill: rgb(134, 186, 234);"/><path class="link" d="" style="fill: rgb(134, 186, 234);"/><path class="link" d="" style="fill: rgb(134, 186, 234);"/><path class="link" d="" style="fill: rgb(134, 186, 234);"/><path class="link" d="" style="fill: rgb(134, 186, 234);"/><path class="link" d="" style="fill: rgb(134, 186, 234);"/><path class="link" d="" style="fill: rgb(134, 186, 234);"/><path class="link" d="" style="fill: rgb(134, 186, 234);"/><path class="link" d="" style="fill: rgb(134, 186, 234);"/><path class="link" d="" style="fill: rgb(134, 186, 234);"/><path class="link" d="" style="fill: rgb(134, 186, 234);"/><path class="link" d="" style="fill: rgb(134, 186, 234);"/><path class="link" d="" style="fill: rgb(134, 186, 234);"/><path class="link" d="" style="fill: rgb(134, 186, 234);"/><path class="link" d="" style="fill: rgb(134, 186, 234);"/><path class="link" d="" style="fill: rgb(134, 186, 234);"/><path class="link" d="" style="fill: rgb(134, 186, 234);"/><path class="link" d="" style="fill: rgb(134, 186, 234);"/><path class="link" d="" style="fill: rgb(134, 186, 234);"/><path class="link" d="" style="fill: rgb(134, 186, 234);"/><path class="link" d="" style="fill: rgb(134, 186, 234);"/><path class="link" d="" style="fill: rgb(134, 186, 234);"/><path class="link" d="" style="fill: rgb(134, 186, 234);"/><path class="link" d="" style="fill: rgb(134, 186, 234);"/><path class="link" d="" style="fill: rgb(134, 186, 234);"/><path class="link" d="" style="fill: rgb(134, 186, 234);"/><path class="link" d="" style="fill: rgb(134, 186, 234);"/><path class="link" d="" style="fill: rgb(134, 186, 234);"/><path class="link" d="" style="fill: rgb(134, 186, 234);"/><path class="link" d="" style="fill: rgb(134, 186, 234);"/><path class="link" d="" style="fill: rgb(134, 186, 234);"/><path class="link" d="" style="fill: rgb(134, 186, 234);"/><path class="link" d="" style="fill: rgb(134, 186, 234);"/><path class="link" d="" style="fill: rgb(134, 186, 234);"/><path class="link" d="" style="fill: rgb(134, 186, 234);"/><path class="link" d="" style="fill: rgb(134, 186, 234);"/><path class="link" d="" style="fill: rgb(134, 186, 234);"/><path class="link" d="" style="fill: rgb(134, 186, 234);"/><path class="link" d="" style="fill: rgb(134, 186, 234);"/><path class="link" d="" style="fill: rgb(134, 186, 234);"/><path class="link" d="" style="fill: rgb(134, 186, 234);"/><path class="link" d="" style="fill: rgb(134, 186, 234);"/><path class="link" d="" style="fill: rgb(134, 186, 234);"/><path class="link" d="" style="fill: rgb(134, 186, 234);"/><path class="link" d="" style="fill: rgb(134, 186, 234);"/><path class="link" d="" style="fill: rgb(134, 186, 234);"/><path class="link" d="" style="fill: rgb(134, 186, 234);"/><path class="link" d="" style="fill: rgb(134, 186, 234);"/><path class="link" d="" style="fill: rgb(134, 186, 234);"/><path class="link" d="" style="fill: rgb(134, 186, 234);"/><path class="link" d="" style="fill: rgb(134, 186, 234);"/><path class="link" d="" style="fill: rgb(134, 186, 234);"/><path class="link" d="" style="fill: rgb(134, 186, 234);"/><path class="link" d="" style="fill: rgb(134, 186, 234);"/><path class="link" d="" style="fill: rgb(134, 186, 234);"/><path class="link" d="" style="fill: rgb(134, 186, 234);"/><path class="link" d="" style="fill: rgb(134, 186, 234);"/><path class="link" d="" style="fill: rgb(134, 186, 234);"/><path class="link" d="" style="fill: rgb(134, 186, 234);"/><path class="link" d="" style="fill: rgb(134, 186, 234);"/><path class="link" d="" style="fill: rgb(134, 186, 234);"/><path class="link" d="" style="fill: rgb(134, 186, 234);"/><path class="link" d="" style="fill: rgb(134, 186, 234);"/><path class="link" d="" style="fill: rgb(134, 186, 234);"/><path class="link" d="" style="fill: rgb(134, 186, 234);"/><path class="link" d="M626.3585273928827,433.02064766606827L627.7764819915535,436.58566791128465Q695.5237873086545,412.7404444519797,749.3743597163798,366.1415519119943L746.9832111104747,363.1411564485309Q693.0918812682979,408.5425584229223,626.3585273928827,433.02064766606827Z" style="fill: rgb(134, 186, 234);"/><path class="link" d="M625.4359182405161,435.7990477252971L628.6990911439201,433.8072678520558Q533.5174897541206,271.0987857211566,507.09880300416773,85.06576940122551L503.30433698319075,85.53215130118576Q528.2635922367448,272.93072690086126,625.4359182405161,435.7990477252971Z" style="fill: rgb(134, 186, 234);"/><path class="link" d="M628.2601024923529,436.3020013704715L625.8749068920833,433.30431420688143Q569.1151241659219,474.7902760490296,505.2952878058547,503.297221929075L506.7123971286207,506.8563071415457Q571.5469417022582,478.97968300338255,628.2601024923529,436.3020013704715Z" style="fill: rgb(134, 186, 234);"/><path class="link" d="M625.689764882997,433.46709137556655L628.4452445014392,436.13922420178636Q718.8477134492051,347.6869687464629,749.667160619475,225.20908616773215L745.9707549251709,224.17489725281882Q714.1607619252325,344.9933650813225,625.689764882997,433.46709137556655Z" style="fill: rgb(134, 186, 234);"/><path class="link" d="M625.6947051567047,436.1447098055685L628.4403042277315,433.46160577178443Q544.3981687899015,342.71153539392327,507.3604952412407,224.7087900138795L503.66820727356713,225.75968062602945Q539.7223669969922,345.42357134882076,625.6947051567047,436.1447098055685Z" style="fill: rgb(134, 186, 234);"/><path class="link" d="M625.225718039781,435.30993488828415L628.9092913446552,434.29638068906877Q594.1476272264321,295.0556739607658,628.3725771069934,155.5148923393177L624.6848251645966,154.516648872783Q588.6181934813242,295.06632232700156,625.225718039781,435.30993488828415Z" style="fill: rgb(134, 186, 234);"/><path class="link" d="M626.3633606690986,436.5844744121852L627.7716487153376,433.0218411651677Q563.8214018271512,404.6537799731806,506.94897773064855,363.61515894776534L504.58195180250794,366.6272710189614Q561.4111270355169,408.849576434015,626.3633606690986,436.5844744121852Z" style="fill: rgb(134, 186, 234);"/><path class="link" d="M625.1760021991843,435.0818335917534L628.959007185252,434.5244819855995Q621.624092823957,365.06447624492137,628.7226884550064,295.20358224883364L624.937398786747,294.66196461169056Q616.7940855391265,365.07267625602236,625.1760021991843,435.0818335917534Z" style="fill: rgb(134, 186, 234);"/><path class="link" d="M628.4078322638687,155.36778071280054L624.6495700077213,154.66376049930017Q581.3805733818643,366.3343267928187,625.4796273682663,575.1883190894654L629.233405811597,574.4607704344702Q586.9452980402897,366.32335378474016,628.4078322638687,155.36778071280054Z" style="fill: rgb(134, 186, 234);"/><path class="link" d="M625.8256602151994,153.24217016563674L627.2317420563907,156.78937104646397Q695.855954313625,132.6855376098844,748.743229563765,86.24007955364063L746.3446471391492,83.27250435065197Q693.4250782239208,128.49858586652553,625.8256602151994,153.24217016563674Z" style="fill: rgb(134, 186, 234);"/><path class="link" d="M627.8804575173541,153.67174597465666L625.1769447542359,156.35979523744405Q726.7479867529105,263.37367499274063,868.7520976507933,296.2195873898607L869.6981720070889,292.52641349578613Q729.5005453101073,258.5799793506437,627.8804575173541,153.67174597465666Z" style="fill: rgb(134, 186, 234);"/><path class="link" d="M626.9956660949343,153.15664613251565L626.0617361766557,156.87489507958506Q748.4386331350215,191.03750027758548,869.4298515948495,156.27418767261722L868.4686608397786,152.56289239239422Q748.4253188111446,185.63311221081835,626.9956660949343,153.15664613251565Z" style="fill: rgb(134, 186, 234);"/><path class="link" d="M627.0016039522156,156.86573205014352L626.0557983193744,153.16580916195718Q504.7675258551391,180.74957249246665,384.592526120788,153.58671119694938L383.6507838584344,157.28767042192558Q504.7768952736583,186.13899864971376,627.0016039522156,156.86573205014352Z" style="fill: rgb(134, 186, 234);"/><path class="link" d="M628.4292612417311,154.78021372844879L624.628141029859,155.25132748365192Q644.6213138615724,345.27233602681355,746.8186621115051,505.5954159836896L750.0861406521603,503.5969047823695Q649.8818485982127,343.43761108479606,628.4292612417311,154.78021372844879Z" style="fill: rgb(134, 186, 234);"/><path class="link" d="M624.642037576754,155.29712924703702L628.4153646948361,154.73441196506369Q620.8616155488218,84.62434315103368,628.1265080613492,15.284138122721794L624.3517925800398,14.730810629596766Q616.032698054393,84.63432982349678,624.642037576754,155.29712924703702Z" style="fill: rgb(134, 186, 234);"/><path class="link" d="M627.8918481354731,156.36080543095952L625.165554136117,153.6707357811412Q521.5779375445156,253.7686437514449,383.93533480064457,293.5603150186609L384.91066617142326,297.2640809952007Q524.357851443,258.56244808534586,627.8918481354731,156.36080543095952Z" style="fill: rgb(134, 186, 234);"/><path class="link" d="M628.3637147323349,154.49296585560023L624.6936875392552,155.53857535650047Q656.2374706830402,278.34147346753355,746.8165119116321,365.9773222236252L749.5410589152224,363.30538613690004Q660.8947984532508,275.6387293363331,628.3637147323349,154.49296585560023Z" style="fill: rgb(134, 186, 234);"/><path class="link" d="M625.8257948891979,156.79760985166052L627.2316073823921,153.23393136044018Q562.7925681427098,124.72080476288633,506.38949786068576,83.79634407567453L504.0136421266727,86.80157662673675Q560.3791400770995,128.92085783972686,625.8257948891979,156.79760985166052Z" style="fill: rgb(134, 186, 234);"/><path class="link" d="M628.4319378483044,155.2435124735298L624.6254644232856,154.78802873857092Q598.7227398584929,341.52492441036964,504.3644412586329,504.08351732576403L507.6432436758425,506.0700117448567Q603.9938001088498,343.33973326575466,628.4319378483044,155.2435124735298Z" style="fill: rgb(134, 186, 234);"/><path class="link" d="M627.7161850406299,153.50573176248318L625.3412172309602,156.52580944961753Q679.8125542054505,203.0249178686361,747.1140208994865,226.47900019896238L748.5238946451594,222.9049832215886Q682.229138131069,198.81820171961397,627.7161850406299,153.50573176248318Z" style="fill: rgb(134, 186, 234);"/><path class="link" d="M627.7146866258397,156.5113022817431L625.3427156457503,153.5202389303576Q568.6460849416075,194.82332671871677,504.80511067439267,223.46218724752342L506.22359184041517,227.00628339238554Q571.0679711472353,198.9972001556771,627.7146866258397,156.5113022817431Z" style="fill: rgb(134, 186, 234);"/><path class="link" d="M628.3725771069934,155.5148923393177L624.6848251645966,154.516648872783Q583.0887597362162,295.07697069323734,625.225718039781,435.30993488828415L628.9092913446552,434.29638068906877Q588.6181934813242,295.06632232700156,628.3725771069934,155.5148923393177Z" style="fill: rgb(134, 186, 234);"/><path class="link" d="M628.3690904055507,155.5327689425785L624.6883118660394,154.4987722695222Q588.0550593991845,272.6567379474107,504.39236390390585,363.79120973332374L507.13856562925065,366.451220233403Q592.726907285989,275.3419966388609,628.3690904055507,155.5327689425785Z" style="fill: rgb(134, 186, 234);"/><path class="link" d="M628.4254966257959,155.286694006733L624.6319056457942,154.7448472053677Q611.7108328591123,224.9023719371334,624.9343150253109,295.2110641269781L628.7257722164426,294.6544827335461Q616.548134829137,224.89195372800003,628.4254966257959,155.286694006733Z" style="fill: rgb(134, 186, 234);"/><path class="link" d="M507.59758759014477,364.60204688954155L503.9333419430117,365.64038307718516Q535.5788200367432,489.4718357718601,626.002836556118,576.1638579875914L628.7101966237452,573.4852315363441Q540.23725976831,486.77075998343605,507.59758759014477,364.60204688954155Z" style="fill: rgb(134, 186, 234);"/><path class="link" d="M505.2850467668387,366.9687151609788L506.2458827663178,363.27371480574794Q367.1307486533917,323.5562312995764,264.3987238827086,224.33582248461457L261.68135545677535,227.01763945838283Q364.37427971741334,328.3543063112394,505.2850467668387,366.9687151609788Z" style="fill: rgb(134, 186, 234);"/><path class="link" d="M505.8028986351919,363.2007384709278L505.7280308979646,367.04169149579894Q697.1280080423937,374.3103890797858,869.9838948063874,296.1376291930034L868.4663748514948,292.6083716926434Q696.0613271670675,368.8304560309349,505.8028986351919,363.2007384709278Z" style="fill: rgb(134, 186, 234);"/><path class="link" d="M503.8856496335219,365.48219870942614L507.6452798996346,364.7602312573006Q470.88525234335935,154.46876695935185,506.7504070680175,-54.31161567289318L502.9887622502616,-55.023012190209315Q465.3158409326166,154.4806527650596,503.8856496335219,365.48219870942614Z" style="fill: rgb(134, 186, 234);"/><path class="link" d="M506.95482177170356,366.614726743321L504.57610776145293,363.6277032234057Q447.4064766468142,405.4783418658218,383.93709024910544,433.5752673423772L385.33689435286357,437.1278914882996Q449.8328219991083,409.663134420644,506.95482177170356,366.614726743321Z" style="fill: rgb(134, 186, 234);"/><path class="link" d="M505.129526136881,363.31171213130995L506.4014033962755,366.9307178354168Q710.7594776173672,298.88495451133997,870.206023729829,155.86742026627857L867.6924887047992,152.96965979873286Q707.9607892025076,294.06091385862857,505.129526136881,363.31171213130995Z" style="fill: rgb(134, 186, 234);"/><path class="link" d="M504.3994473483969,366.45696992412246L507.1314821847596,363.78546004260426Q422.5655399473708,272.56144160455466,385.9605461542926,154.91880472456083L382.2827638249298,155.95557689431413Q417.9018477507014,275.2669852846941,504.3994473483969,366.45696992412246Z" style="fill: rgb(134, 186, 234);"/><path class="link" d="M507.11699698284474,363.7774391053299L504.41393255031176,366.4649908613968Q605.6643858814555,473.1545835271574,747.9750179700702,506.4412831486375L748.9297847935952,502.75103761742156Q608.4169143091946,468.3651735714106,507.11699698284474,363.7774391053299Z" style="fill: rgb(134, 186, 234);"/><path class="link" d="M504.12637183963056,364.1303134136869L507.40455769352593,366.1121165530398Q609.2251275011439,204.51204303446815,628.141129610584,15.233275892515453L624.337171030805,14.781672859803107Q603.9565415956753,202.6991294350491,504.12637183963056,364.1303134136869Z" style="fill: rgb(134, 186, 234);"/><path class="link" d="M505.06547378655017,366.8962357784114L506.4654557466063,363.34619418831534Q442.0066929423159,334.8413154166479,385.60623744049036,293.9153224260684L383.23976353157747,296.90907358779316Q439.60103552135257,339.0288425449269,505.06547378655017,366.8962357784114Z" style="fill: rgb(134, 186, 234);"/><path class="link" d="M506.23149444830875,363.26752885318126L505.29943508484774,366.97490111354546Q627.4411618158902,401.10022694137797,748.6550500913968,366.49243707684013L747.7025207354577,362.7902712836851Q627.4304891175971,395.7086546004842,506.23149444830875,363.26752885318126Z" style="fill: rgb(134, 186, 234);"/><path class="link" d="M503.91151297242556,365.6314305027646L507.61941656073094,364.6109994639621Q472.731192788712,224.88224912530848,507.05684025153556,85.80436059021791L503.3462997358229,84.79356011219336Q467.17417915893975,224.8934475589101,503.91151297242556,365.6314305027646Z" style="fill: rgb(134, 186, 234);"/><path class="link" d="M507.6531587753739,365.39446902447764L503.87777075778257,364.8479609422491Q490.7647739132247,435.4155648015656,504.11742632334705,505.3587052629414L507.89025861112833,504.79482380767934Q495.59116279647094,435.40734430950107,507.6531587753739,365.39446902447764Z" style="fill: rgb(134, 186, 234);"/><path class="link" d="M505.2735068329085,363.2669230888495L506.257422700248,366.9755068778772Q648.9153179885406,332.67865883550655,749.1854088346646,226.03855494042324L746.4525067099813,223.34542848012774Q646.1318748776258,327.88092434779605,505.2735068329085,363.2669230888495Z" style="fill: rgb(134, 186, 234);"/><path class="link" d="M503.8649400899979,365.40150856620977L507.6659894431586,364.84092140051695Q500.2894097014783,295.09603734827,507.4157679266424,225.50841261445163L503.61293458816544,224.96005802545733Q495.4392807497628,295.1047438976854,503.8649400899979,365.40150856620977Z" style="fill: rgb(134, 186, 234);"/><path class="link" d="M506.94897773064855,363.61515894776534L504.58195180250794,366.6272710189614Q559.0008522438825,413.0453728948494,626.3633606690986,436.5844744121852L627.7716487153376,433.0218411651677Q561.4111270355169,408.849576434015,506.94897773064855,363.61515894776534Z" style="fill: rgb(134, 186, 234);"/><path class="link" d="M504.39236390390585,363.79120973332374L507.13856562925065,366.451220233403Q597.3987551727935,278.02725533031116,628.3690904055507,155.5327689425785L624.6883118660394,154.4987722695222Q592.726907285989,275.3419966388609,504.39236390390585,363.79120973332374Z" style="fill: rgb(134, 186, 234);"/><path class="link" d="M505.05566650723074,363.3511255395542L506.47526302592576,366.89130442717254Q573.7107845642641,343.01425077276053,628.0128842225239,296.4287407825638L625.6472030192296,293.4368060779604Q571.2934805060494,338.84476230293683,505.05566650723074,363.3511255395542Z" style="fill: rgb(134, 186, 234);"/><path class="link" d="M628.6711566420765,295.4324649284805L624.9889305996769,294.4330819320437Q582.9073986922414,436.3902359999993,625.5199760988395,575.3407886721521L629.1930570810238,574.3083008517834Q588.44028147139,436.37982871574684,628.6711566420765,295.4324649284805Z" style="fill: rgb(134, 186, 234);"/><path class="link" d="M625.4577816302641,293.602123199339L628.2023056114894,296.2634236611852Q719.4882473053502,206.89181514162314,749.3874331802465,85.26152439782099L745.7004435226677,84.2510595064716Q714.8079102276274,204.20368508382364,625.4577816302641,293.602123199339Z" style="fill: rgb(134, 186, 234);"/><path class="link" d="M626.340934973832,293.090616467567L627.3191522679215,296.77493039295723Q770.5448652327879,262.2896338972502,870.3095681208409,155.75357601289846L867.5889443137872,153.08350405211297Q767.7718667665027,257.51149727042514,626.340934973832,293.090616467567Z" style="fill: rgb(134, 186, 234);"/><path class="link" d="M626.3464223077486,296.78558189302447L627.3136649340048,293.07996496749973Q488.5021890431236,253.30033225961012,385.4826220241032,154.0901356861327L382.76068795511924,156.78424593274227Q485.7404549220348,258.10547394054373,626.3464223077486,296.78558189302447Z" style="fill: rgb(134, 186, 234);"/><path class="link" d="M628.6789807172386,294.4055356958189L624.9811065245149,295.4600111647053Q656.5958069231847,418.4557503630255,747.0799502732492,505.9426097766095L749.8248524904162,503.24971098944957Q661.2788623498966,415.7391852497744,628.6789807172386,294.4055356958189Z" style="fill: rgb(134, 186, 234);"/><path class="link" d="M627.303586151853,296.78926000306427L626.3565010899005,293.07628685745993Q505.17753371999726,320.56065887742454,384.8928477835726,293.5547727888847L383.9531531884952,297.2696232249769Q505.1882133698028,325.960512070318,627.303586151853,296.78926000306427Z" style="fill: rgb(134, 186, 234);"/><path class="link" d="M628.0178828841144,293.4225422646085L625.642204357639,296.4430045959157Q680.3905490444796,343.17085638992637,747.4762528751671,366.429707702832L748.8813179516874,362.85300065769326Q682.8086119527235,338.96149093830473,628.0178828841144,293.4225422646085Z" style="fill: rgb(134, 186, 234);"/><path class="link" d="M625.4610722780933,296.26947058390215L628.1990149636601,293.59607627662206Q543.8133165250365,202.42582277632476,507.04246749550254,84.77748340474244L503.36067249185595,85.82043729766883Q539.1473424149791,205.13299725669486,625.4610722780933,296.26947058390215Z" style="fill: rgb(134, 186, 234);"/><path class="link" d="M628.6792569546441,295.45285787106485L624.9808302871094,294.41268898945935Q588.1844579228159,412.9720979322937,504.62610089467745,503.73814362609545L507.38158403979793,506.41538544452527Q592.8736407777762,415.6682309404291,628.6792569546441,295.45285787106485Z" style="fill: rgb(134, 186, 234);"/><path class="link" d="M626.116545965302,293.1556624672786L627.5435412764515,296.7098843932456Q695.1177814856759,272.6748640552149,749.0101771617202,226.19139113857705L746.6277383829257,223.19259228197393Q692.688785831084,268.49094782405456,626.116545965302,293.1556624672786Z" style="fill: rgb(134, 186, 234);"/><path class="link" d="M626.1248043695911,296.7110124902321L627.5352828721624,293.1545343702921Q563.3491822595132,264.61166235308144,506.69652581478783,223.73025397970085L504.33217670002,226.7382166602081Q560.9418081248649,268.80188309287036,626.1248043695911,296.7110124902321Z" style="fill: rgb(134, 186, 234);"/><path class="link" d="M628.7226884550064,295.20358224883364L624.937398786747,294.66196461169056Q611.964078254296,365.08087626712336,625.1760021991843,435.0818335917534L628.959007185252,434.5244819855995Q616.7940855391265,365.07267625602236,628.7226884550064,295.20358224883364Z" style="fill: rgb(134, 186, 234);"/><path class="link" d="M624.9343150253109,295.2110641269781L628.7257722164426,294.6544827335461Q621.3854367991617,224.88153551886666,628.4254966257959,155.286694006733L624.6319056457942,154.7448472053677Q616.548134829137,224.89195372800003,624.9343150253109,295.2110641269781Z" style="fill: rgb(134, 186, 234);"/><path class="link" d="M628.0128842225239,296.4287407825638L625.6472030192296,293.4368060779604Q568.8761764478347,334.6752738331132,505.05566650723074,363.3511255395542L506.47526302592576,366.89130442717254Q571.2934805060494,338.84476230293683,628.0128842225239,296.4287407825638Z" style="fill: rgb(134, 186, 234);"/></g><g class="nodes"><g id="id-1-1"><circle r="19.73520968851416" cx="626.8300436208767" cy="294.9327734302621" style="fill: rgb(200, 233, 194);"/><circle r="0" fill="" cx="626.8300436208767" cy="294.9327734302621"/><circle r="0" cx="626.8300436208767" cy="294.9327734302621" style="fill: rgb(244, 128, 116);"/></g><g id="id-1-2"><circle r="19.533695410706425" cx="505.76546476657825" cy="365.12121498336336" style="fill: rgb(200, 233, 194);"/><circle r="0" fill="" cx="505.76546476657825" cy="365.12121498336336"/><circle r="0" cx="505.76546476657825" cy="365.12121498336336" style="fill: rgb(244, 128, 116);"/></g><g id="id-1-3"><circle r="19.52693382998324" cx="626.528701135795" cy="155.01577060605035" style="fill: rgb(200, 233, 194);"/><circle r="0" fill="" cx="626.528701135795" cy="155.01577060605035"/><circle r="0" cx="626.528701135795" cy="155.01577060605035" style="fill: rgb(244, 128, 116);"/></g><g id="id-1-4"><circle r="19.36026861847983" cx="627.0675046922181" cy="434.80315778867646" style="fill: rgb(200, 233, 194);"/><circle r="0" fill="" cx="627.0675046922181" cy="434.80315778867646"/><circle r="0" cx="627.0675046922181" cy="434.80315778867646" style="fill: rgb(244, 128, 116);"/></g><g id="id-1-5"><circle r="19.35111055609841" cx="505.5143512574039" cy="225.23423531995448" style="fill: rgb(200, 233, 194);"/><circle r="0" fill="" cx="505.5143512574039" cy="225.23423531995448"/><circle r="0" cx="505.5143512574039" cy="225.23423531995448" style="fill: rgb(244, 128, 116);"/></g><g id="id-1-6"><circle r="19.171524904006258" cx="747.818957772323" cy="224.6919917102755" style="fill: rgb(200, 233, 194);"/><circle r="0" fill="" cx="747.818957772323" cy="224.6919917102755"/><circle r="0" cx="747.818957772323" cy="224.6919917102755" style="fill: rgb(244, 128, 116);"/></g><g id="id-1-7"><circle r="18.95205169678438" cx="506.0038424672377" cy="505.07676453531036" style="fill: rgb(200, 233, 194);"/><circle r="0" fill="" cx="506.0038424672377" cy="505.07676453531036"/><circle r="0" cx="506.0038424672377" cy="505.07676453531036" style="fill: rgb(244, 128, 116);"/></g><g id="id-1-8"><circle r="18.746015667487526" cx="505.20156999367924" cy="85.29896035120564" style="fill: rgb(200, 233, 194);"/><circle r="0" fill="" cx="505.20156999367924" cy="85.29896035120564"/><circle r="0" cx="505.20156999367924" cy="85.29896035120564" style="fill: rgb(244, 128, 116);"/></g><g id="id-1-9"><circle r="18.739015394874258" cx="748.1787854134272" cy="364.6413541802626" style="fill: rgb(200, 233, 194);"/><circle r="0" fill="" cx="748.1787854134272" cy="364.6413541802626"/><circle r="0" cx="748.1787854134272" cy="364.6413541802626" style="fill: rgb(244, 128, 116);"/></g><g id="id-1-10"><circle r="18.736811207577787" cx="384.4230004860339" cy="295.4121980069308" style="fill: rgb(200, 233, 194);"/><circle r="0" fill="" cx="384.4230004860339" cy="295.4121980069308"/><circle r="0" cx="384.4230004860339" cy="295.4121980069308" style="fill: rgb(244, 128, 116);"/></g><g id="id-1-11"><circle r="18.72953550272735" cx="626.2391503206945" cy="15.00747437615928" style="fill: rgb(200, 233, 194);"/><circle r="0" fill="" cx="626.2391503206945" cy="15.00747437615928"/><circle r="0" cx="626.2391503206945" cy="15.00747437615928" style="fill: rgb(244, 128, 116);"/></g><g id="id-1-12"><circle r="18.554766536035686" cx="748.4524013818327" cy="504.59616038302954" style="fill: rgb(200, 233, 194);"/><circle r="0" fill="" cx="748.4524013818327" cy="504.59616038302954"/><circle r="0" cx="748.4524013818327" cy="504.59616038302954" style="fill: rgb(244, 128, 116);"/></g><g id="id-1-13"><circle r="18.322888380534653" cx="384.1216549896112" cy="155.43719080943748" style="fill: rgb(201, 233, 195);"/><circle r="0" fill="" cx="384.1216549896112" cy="155.43719080943748"/><circle r="0" cx="384.1216549896112" cy="155.43719080943748" style="fill: rgb(244, 128, 116);"/></g><g id="id-1-14"><circle r="18.306587207155488" cx="868.9492562173141" cy="154.41854003250572" style="fill: rgb(201, 233, 195);"/><circle r="0" fill="" cx="868.9492562173141" cy="154.41854003250572"/><circle r="0" cx="868.9492562173141" cy="154.41854003250572" style="fill: rgb(244, 128, 116);"/></g><g id="id-1-15"><circle r="18.09063850943817" cx="384.6369923009845" cy="435.3515794153384" style="fill: rgb(201, 233, 195);"/><circle r="0" fill="" cx="384.6369923009845" cy="435.3515794153384"/><circle r="0" cx="384.6369923009845" cy="435.3515794153384" style="fill: rgb(244, 128, 116);"/></g><g id="id-1-16"><circle r="17.870366697140142" cx="504.86958465913955" cy="-54.66731393155125" style="fill: rgb(201, 233, 195);"/><circle r="0" fill="" cx="504.86958465913955" cy="-54.66731393155125"/><circle r="0" cx="504.86958465913955" cy="-54.66731393155125" style="fill: rgb(244, 128, 116);"/></g><g id="id-1-17"><circle r="17.652269753972334" cx="869.2251348289411" cy="294.3730004428234" style="fill: rgb(201, 233, 195);"/><circle r="0" fill="" cx="869.2251348289411" cy="294.3730004428234"/><circle r="0" cx="869.2251348289411" cy="294.3730004428234" style="fill: rgb(244, 128, 116);"/></g><g id="id-1-18"><circle r="17.633357873514132" cx="263.040039669742" cy="225.6767309714987" style="fill: rgb(201, 233, 195);"/><circle r="0" fill="" cx="263.040039669742" cy="225.6767309714987"/><circle r="0" cx="263.040039669742" cy="225.6767309714987" style="fill: rgb(244, 128, 116);"/></g><g id="id-1-19"><circle r="17.125438470694732" cx="747.5439383514571" cy="84.7562919521463" style="fill: rgb(201, 233, 195);"/><circle r="0" fill="" cx="747.5439383514571" cy="84.7562919521463"/><circle r="0" cx="747.5439383514571" cy="84.7562919521463" style="fill: rgb(244, 128, 116);"/></g><g id="id-1-20"><circle r="16.87828713049925" cx="627.3565165899316" cy="574.8245447619678" style="fill: rgb(201, 234, 195);"/><circle r="0" fill="" cx="627.3565165899316" cy="574.8245447619678"/><circle r="0" cx="627.3565165899316" cy="574.8245447619678" style="fill: rgb(244, 128, 116);"/></g></g></g><g transform="matrix(0.15,0,0,0.15,622.0378062941032,284.488878668838)"><g class="links"><path class="link" d="M663.2493689158189,394.08412720357774L665.8809145630289,398.50357151634523Q745.233725534767,355.564731585745,801.112700275106,274.632103274887L796.9937517477084,271.5513917408983Q740.9038292513077,350.83819325965345,663.2493689158189,394.08412720357774Z" style="fill: rgb(119, 172, 220);"/><path class="link" d="M801.112700275106,274.632103274887L796.9937517477084,271.5513917408983Q736.5739329678482,346.1116549335619,663.2493689158189,394.08412720357774L665.8809145630289,398.50357151634523Q740.9038292513077,350.83819325965345,801.112700275106,274.632103274887Z" style="fill: rgb(119, 172, 220);"/></g><g class="nodes"><g id="id-4-1"><circle r="25.273384093713023" cx="799.0532260114072" cy="273.09174750789265" style="fill: rgb(197, 232, 191); stroke: rgb(143, 206, 146); stroke-width: 2.78071;"/><circle r="0" fill="" cx="799.0532260114072" cy="273.09174750789265"/><circle r="0" cx="799.0532260114072" cy="273.09174750789265" style="fill: rgb(244, 128, 116);"/></g><g id="id-4-2"><circle r="16.87348600479951" cx="664.5651417394239" cy="396.2938493599615" style="fill: rgb(201, 234, 195); stroke: rgb(151, 211, 152); stroke-width: 2.5523;"/><circle r="0" fill="" cx="664.5651417394239" cy="396.2938493599615"/><circle r="0" cx="664.5651417394239" cy="396.2938493599615" style="fill: rgb(244, 128, 116);"/></g></g></g></g></g><g id="labelsContainer"><g class="network labels"><text class="label" text-anchor="start" x="557.0084503332482" y="321.58267048100515" dx="0" visibility="visible" style="fill: black; font-size: 13px; paint-order: stroke; stroke: white; stroke-width: 2px; stroke-linecap: square; stroke-linejoin: round;"/><text class="label" text-anchor="start" x="236.29057583445137" y="956.3907444582055" dx="0" visibility="visible" style="fill: black; font-size: 13px; paint-order: stroke; stroke: white; stroke-width: 2px; stroke-linecap: square; stroke-linejoin: round;">lymphocytopenia, sore, dysp...</text><text class="label" text-anchor="start" x="848.9372423266127" y="-606.9006649261105" dx="0" visibility="visible" style="fill: black; font-size: 13px; paint-order: stroke; stroke: white; stroke-width: 2px; stroke-linecap: square; stroke-linejoin: round;">virus infection, respirator...</text><text class="label" text-anchor="start" x="1275.5090497676701" y="665.5147217854553" dx="0" visibility="visible" style="fill: black; font-size: 13px; paint-order: stroke; stroke: white; stroke-width: 2px; stroke-linecap: square; stroke-linejoin: round;"/><text class="label" text-anchor="start" x="-643.5464494998412" y="301.62359657767615" dx="0" visibility="visible" style="fill: black; font-size: 13px; paint-order: stroke; stroke: white; stroke-width: 2px; stroke-linecap: square; stroke-linejoin: round;">coronary heart disease, myo...</text><text class="label" text-anchor="start" x="1959.3992094621613" y="-54.444349001501564" dx="0" visibility="visible" style="fill: black; font-size: 13px; paint-order: stroke; stroke: white; stroke-width: 2px; stroke-linecap: square; stroke-linejoin: round;">coronavirus diseases, viral...</text><text class="label" text-anchor="start" x="116.79189852810168" y="2604.970543977372" dx="0" visibility="visible" style="fill: black; font-size: 13px; paint-order: stroke; stroke: white; stroke-width: 2px; stroke-linecap: square; stroke-linejoin: round;">critically ill, cancer</text><text class="label" text-anchor="start" x="-480.71546362314484" y="-1086.4485503639953" dx="0" visibility="visible" style="fill: black; font-size: 13px; paint-order: stroke; stroke: white; stroke-width: 2px; stroke-linecap: square; stroke-linejoin: round;">myocarditis</text><text class="label" text-anchor="start" x="2358.251166767461" y="1266.1715484270612" dx="0" visibility="visible" style="fill: black; font-size: 13px; paint-order: stroke; stroke: white; stroke-width: 2px; stroke-linecap: square; stroke-linejoin: round;">liver injury</text><text class="label" text-anchor="start" x="-1636.0098103042333" y="1874.2459905450678" dx="0" visibility="visible" style="fill: black; font-size: 13px; paint-order: stroke; stroke: white; stroke-width: 2px; stroke-linecap: square; stroke-linejoin: round;">muscle soreness</text><text class="label" text-anchor="start" x="1521.271369758787" y="-1741.5159716322391" dx="0" visibility="visible" style="fill: black; font-size: 13px; paint-order: stroke; stroke: white; stroke-width: 2px; stroke-linecap: square; stroke-linejoin: round;">lung cancer</text><text class="label" text-anchor="start" x="2096.0713435984676" y="3065.8684739278915" dx="0" visibility="visible" style="fill: black; font-size: 13px; paint-order: stroke; stroke: white; stroke-width: 2px; stroke-linecap: square; stroke-linejoin: round;">tumor</text><text class="label" text-anchor="start" x="-1915.8872100731242" y="-1276.1526056717187" dx="0" visibility="visible" style="fill: black; font-size: 13px; paint-order: stroke; stroke: white; stroke-width: 2px; stroke-linecap: square; stroke-linejoin: round;">bacterial infection</text><text class="label" text-anchor="start" x="3830.1193904989937" y="402.93038265749055" dx="0" visibility="visible" style="fill: black; font-size: 13px; paint-order: stroke; stroke: white; stroke-width: 2px; stroke-linecap: square; stroke-linejoin: round;">pain</text><text class="label" text-anchor="start" x="-1136.4523188027533" y="3305.447863154196" dx="0" visibility="visible" style="fill: black; font-size: 13px; paint-order: stroke; stroke: white; stroke-width: 2px; stroke-linecap: square; stroke-linejoin: round;">traumatic</text><text class="label" text-anchor="start" x="187.79729219700357" y="-2570.044336749809" dx="0" visibility="visible" style="fill: black; font-size: 13px; paint-order: stroke; stroke: white; stroke-width: 2px; stroke-linecap: square; stroke-linejoin: round;">tumors</text><text class="label" text-anchor="start" x="3548.0653814273915" y="2419.135325789728" dx="0" visibility="visible" style="fill: black; font-size: 13px; paint-order: stroke; stroke: white; stroke-width: 2px; stroke-linecap: square; stroke-linejoin: round;">bleeding</text><text class="label" text-anchor="start" x="-2633.1944327219694" y="647.402482322452" dx="0" visibility="visible" style="fill: black; font-size: 13px; paint-order: stroke; stroke: white; stroke-width: 2px; stroke-linecap: square; stroke-linejoin: round;">scaly</text><text class="label" text-anchor="start" x="3132.0464592088033" y="-1480.7999339061907" dx="0" visibility="visible" style="fill: black; font-size: 13px; paint-order: stroke; stroke: white; stroke-width: 2px; stroke-linecap: square; stroke-linejoin: round;">pulmonary embolism</text><text class="label" text-anchor="start" x="723.997742233697" y="4123.201478761472" dx="0" visibility="visible" style="fill: black; font-size: 13px; paint-order: stroke; stroke: white; stroke-width: 2px; stroke-linecap: square; stroke-linejoin: round;">acute lung injury</text></g><g class="network labels"><text class="label" text-anchor="start" x="584.7799253641832" y="342.87173728216953" dx="16.544019344473707" visibility="visible" style="fill: black; font-size: 13px; paint-order: stroke; stroke: white; stroke-width: 2px; stroke-linecap: square; stroke-linejoin: round;">chest pain</text><text class="label" text-anchor="start" x="492.51774909472397" y="396.36168808309236" dx="16.375089996224666" visibility="visible" style="fill: black; font-size: 13px; paint-order: stroke; stroke: white; stroke-width: 2px; stroke-linecap: square; stroke-linejoin: round;">acute kidney injury</text><text class="label" text-anchor="start" x="584.5502750920789" y="236.2423061155364" dx="16.369421765481285" visibility="visible" style="fill: black; font-size: 13px; paint-order: stroke; stroke: white; stroke-width: 2px; stroke-linecap: square; stroke-linejoin: round;">cardiovascular diseases</text><text class="label" text-anchor="start" x="584.9608922120306" y="449.46564095472047" dx="16.22970637726486" visibility="visible" style="fill: black; font-size: 13px; paint-order: stroke; stroke: white; stroke-width: 2px; stroke-linecap: square; stroke-linejoin: round;">respiratory distress</text><text class="label" text-anchor="start" x="492.32637785248005" y="289.75513728477483" dx="16.2220291767898" visibility="visible" style="fill: black; font-size: 13px; paint-order: stroke; stroke: white; stroke-width: 2px; stroke-linecap: square; stroke-linejoin: round;">gastrointestinal symptoms</text><text class="label" text-anchor="start" x="676.9844382756396" y="289.3418985326093" dx="16.07148258776969" visibility="visible" style="fill: black; font-size: 13px; paint-order: stroke; stroke: white; stroke-width: 2px; stroke-linecap: square; stroke-linejoin: round;">diabetes mellitus</text><text class="label" text-anchor="start" x="492.6994144971487" y="503.02049534818946" dx="15.887498275305775" visibility="visible" style="fill: black; font-size: 13px; paint-order: stroke; stroke: white; stroke-width: 2px; stroke-linecap: square; stroke-linejoin: round;">diarrhoea</text><text class="label" text-anchor="start" x="492.08801019481626" y="183.11178108873952" dx="15.714778344372915" visibility="hidden" style="fill: black; font-size: 13px; paint-order: stroke; stroke: white; stroke-width: 2px; stroke-linecap: square; stroke-linejoin: round;">acute respiratory distress ...</text><text class="label" text-anchor="start" x="677.2586595347756" y="395.99599068076816" dx="15.708910018301976" visibility="hidden" style="fill: black; font-size: 13px; paint-order: stroke; stroke: white; stroke-width: 2px; stroke-linecap: square; stroke-linejoin: round;">chills</text><text class="label" text-anchor="start" x="400.0437989569571" y="343.2371022404349" dx="15.70706224886617" visibility="hidden" style="fill: black; font-size: 13px; paint-order: stroke; stroke: white; stroke-width: 2px; stroke-linecap: square; stroke-linejoin: round;">bronchiectasis</text><text class="label" text-anchor="start" x="584.329611140702" y="129.5433011035495" dx="15.700963028047639" visibility="hidden" style="fill: black; font-size: 13px; paint-order: stroke; stroke: white; stroke-width: 2px; stroke-linecap: square; stroke-linejoin: round;">co-infection</text><text class="label" text-anchor="start" x="677.4671796894407" y="502.6542314464504" dx="15.554454264705573" visibility="hidden" style="fill: black; font-size: 13px; paint-order: stroke; stroke: white; stroke-width: 2px; stroke-linecap: square; stroke-linejoin: round;">nausea</text><text class="label" text-anchor="start" x="399.8141463899381" y="236.5634664867727" dx="15.360070888459887" visibility="hidden" style="fill: black; font-size: 13px; paint-order: stroke; stroke: white; stroke-width: 2px; stroke-linecap: square; stroke-linejoin: round;">pericardial effusion</text><text class="label" text-anchor="start" x="769.296698826713" y="235.78716231566244" dx="15.346405620546392" visibility="hidden" style="fill: black; font-size: 13px; paint-order: stroke; stroke: white; stroke-width: 2px; stroke-linecap: square; stroke-linejoin: round;">chronic obstructive pulmona...</text><text class="label" text-anchor="start" x="400.20688010536594" y="449.8835879154906" dx="15.165375903161198" visibility="hidden" style="fill: black; font-size: 13px; paint-order: stroke; stroke: white; stroke-width: 2px; stroke-linecap: square; stroke-linejoin: round;">shock</text><text class="label" text-anchor="start" x="491.83500729550383" y="76.44480060721705" dx="14.98072212034268" visibility="hidden" style="fill: black; font-size: 13px; paint-order: stroke; stroke: white; stroke-width: 2px; stroke-linecap: square; stroke-linejoin: round;">respiratory diseases</text><text class="label" text-anchor="start" x="769.5069433204848" y="342.44513955617316" dx="14.797891529551501" visibility="hidden" style="fill: black; font-size: 13px; paint-order: stroke; stroke: white; stroke-width: 2px; stroke-linecap: square; stroke-linejoin: round;">septic shock</text><text class="label" text-anchor="start" x="307.53898679038866" y="290.09235905672165" dx="14.78203770681138" visibility="hidden" style="fill: black; font-size: 13px; paint-order: stroke; stroke: white; stroke-width: 2px; stroke-linecap: square; stroke-linejoin: round;">tuberculosis</text><text class="label" text-anchor="start" x="676.7748485630616" y="182.69821860858474" dx="14.35624904997394" visibility="hidden" style="fill: black; font-size: 13px; paint-order: stroke; stroke: white; stroke-width: 2px; stroke-linecap: square; stroke-linejoin: round;">bronchogram</text><text class="label" text-anchor="start" x="585.1811454595384" y="556.1746222990625" dx="14.149062168367792" visibility="hidden" style="fill: black; font-size: 13px; paint-order: stroke; stroke: white; stroke-width: 2px; stroke-linecap: square; stroke-linejoin: round;">fibrosis</text></g><g class="network labels"><text class="label" text-anchor="start" x="1326.755101481016" y="618.5691405699807" dx="21.186669001548488" visibility="visible" style="fill: black; font-size: 13px; paint-order: stroke; stroke: white; stroke-width: 2px; stroke-linecap: square; stroke-linejoin: round;">respiratory disease, corona...</text><text class="label" text-anchor="start" x="1224.2629980543245" y="712.4603030009303" dx="14.145037386381414" visibility="hidden" style="fill: black; font-size: 13px; paint-order: stroke; stroke: white; stroke-width: 2px; stroke-linecap: square; stroke-linejoin: round;">virus disease, infectious d...</text></g></g></svg>